{"title":"Marvels.Jessica.Jones.S01E09.WEBRiP.x264-QCF","uid":12812798,"size":260591566,"categoryP":"video","categoryS":"tv_shows","magnet":"?xt=urn:btih:eb0c38ddf1ddfc41d586752166c03c2f8905d78d&amp;dn=Marvels.Jessica.Jones.S01E09.WEBRiP.x264-QCF&amp;tr=udp%3A%2F%2Ftracker.leechers-paradise.org%3A6969&amp;tr=udp%3A%2F%2Fzer0day.ch%3A1337&amp;tr=udp%3A%2F%2Fopen.demonii.com%3A1337&amp;tr=udp%3A%2F%2Ftracker.coppersurfer.tk%3A6969&amp;tr=udp%3A%2F%2Fexodus.desync.com%3A6969","seeders":1,"leechers":0,"uploader":"TheRival","files":3,"time":1448201971,"description":"Screens: \nhttp://extraimago.com/image/CpD\r\n\r\nVideo\r\nID                                       : 1\r\nFormat                                   : AVC\r\nFormat/Info                              : Advanced Video Codec\r\nFormat profile                           :   \r\nFormat settings, CABAC                   : Yes\r\nFormat settings, ReFrames                : 5 frames\r\nCodec ID                                 : avc1\r\nCodec ID/Info                            : Advanced Video Coding\r\nDuration                                 : 54mn 39s\r\nBit rate                                 : 521 Kbps\r\nMaximum bit rate                         : 3 779 Kbps\r\nWidth                                    : 720 pixels\r\nHeight                                   : 404 pixels\r\nDisplay aspect ratio                     : 16:9\r\nFrame rate mode                          : Constant\r\nFrame rate                               : 23.976 fps\r\nColor space                              : YUV\r\nChroma subsampling                       : 4:2:0\r\nBit depth                                : 8 bits\r\nScan type                                : Progressive\r\nBits/(Pixel*Frame)                       : 0.075\r\nStream size                              : 204 MiB (82%)\r\nWriting library                          : x264 core 148 r2638 7599210\r\nEncoding settings                        : cabac=1 / ref=5 / deblock=1:0:0 / analyse=0x3:0x113 / me=umh / subme=8 / psy=1 / psy_rd=1.00:0.00 / mixed_ref=1 / me_range=16 / chroma_me=1 / trellis=1 / 8x8dct=1 / cqm=0 / deadzone=21,11 / fast_pskip=1 / chroma_qp_offset=-2 / threads=6 / lookahead_threads=1 / sliced_threads=0 / nr=0 / decimate=1 / interlaced=0 / bluray_compat=0 / constrained_intra=0 / bframes=3 / b_pyramid=2 / b_adapt=2 / b_bias=0 / direct=3 / weightb=1 / open_gop=0 / weightp=2 / keyint=250 / keyint_min=25 / scenecut=40 / intra_refresh=0 / rc_lookahead=50 / rc=crf / mbtree=1 / crf=20.0 / qcomp=0.60 / qpmin=0 / qpmax=69 / qpstep=4 / ip_ratio=1.40 / aq=1:1.00\r\nEncoded date                             : UTC 2015-11-22 02:46:07\r\nTagged date                              : UTC 2015-11-22 02:46:11\r\nColor range                              : Limited\r\nMatrix coefficients                      : BT.709\r\n\r\nAudio\r\nID                                       : 2\r\nFormat                                   : AAC\r\nFormat/Info                              : Advanced Audio Codec\r\nFormat profile                           : LC\r\nCodec ID                                 : 40\r\nDuration                                 : 54mn 39s\r\nBit rate mode                            : Variable\r\nBit rate                                 : 110 Kbps\r\nMaximum bit rate                         : 152 Kbps\r\nChannel(s)                               : 2 channels\r\nChannel positions                        : Front: L R\r\nSampling rate                            : 48.0 KHz\r\nCompression mode                         : Lossy\r\nStream size                              : 43.1 MiB (17%)\r\nLanguage                                 : English\r\nEncoded date                             : UTC 2015-11-22 02:20:49\r\nTagged date                              : UTC 2015-11-22 02:46:11","torrent":{"xt":"urn:btih:eb0c38ddf1ddfc41d586752166c03c2f8905d78d","amp;dn":"Marvels.Jessica.Jones.S01E09.WEBRiP.x264-QCF","amp;tr":["udp%3A%2F%2Ftracker.leechers-paradise.org%3A6969","udp%3A%2F%2Fzer0day.ch%3A1337","udp%3A%2F%2Fopen.demonii.com%3A1337","udp%3A%2F%2Ftracker.coppersurfer.tk%3A6969","udp%3A%2F%2Fexodus.desync.com%3A6969"],"infoHash":"eb0c38ddf1ddfc41d586752166c03c2f8905d78d","infoHashBuffer":{"type":"Buffer","data":[235,12,56,221,241,221,252,65,213,134,117,33,102,192,60,47,137,5,215,141]},"announce":[],"urlList":[]}}